<?xml version="1.0" encoding="UTF-8"?> <svg xmlns="http://www.w3.org/2000/svg" id="Ebene_1" data-name="Ebene 1" viewBox="0 0 566.93 226.77"><defs><style>.cls-1{fill:#76abdc;}.cls-2{fill:none;stroke:#ee7006;stroke-linecap:square;stroke-linejoin:round;stroke-width:5px;}.cls-3{font-size:50.2px;fill:#ee7006;letter-spacing:0em;}.cls-3,.cls-5{font-family:OpenSans-Bold, Open Sans;font-weight:700;}.cls-4{font-size:46.34px;letter-spacing:0em;}.cls-5{font-size:25px;fill:#348d65;letter-spacing:0.01em;}.cls-6{fill:#1b6a9b;}</style></defs><title>Zeichenfläche 1</title><circle class="cls-1" cx="110.82" cy="114.66" r="72.2"></circle><path class="cls-2" d="M192,155.19a89.27,89.27,0,1,1-7.13-93"></path><text class="cls-3" transform="translate(189.16 140.92)">Klimawandel<tspan class="cls-4" x="323.87" y="0"> </tspan></text><text class="cls-5" transform="translate(257.44 168.83)">verstehen und handeln</text><path class="cls-6" d="M69.23,80.26c13.6,4.86,33.12,28.81,18,40.72s-32.72,23.3-17.49,27.14,39.4-5,27.2,14.24-42.1-3-50.75-27.13C36.46,108.24,48.22,72.76,69.23,80.26Z"></path><path class="cls-6" d="M163.39,73.41c-.51-6.91-35.29-32.88-63.64-22.66-31.42,11.32,21.4,54.37,35.14,27.48,3.76-7.35,18.26-2,28.15-4.41C163.17,73.78,163.4,73.54,163.39,73.41Z"></path><path class="cls-6" d="M133.23,156c40.4,28.86,54.48-63.15,41.07-59.41C158.58,101,101.33,133.25,133.23,156Z"></path><path class="cls-6" d="M165.89,79.2c1.23-1.86,6.51,7.12,5.8,11.15-.51,2.87-4,5.06-5.49-3.63C166.2,86.72,165.36,80,165.89,79.2Z"></path><path class="cls-1" d="M110.91,47.46a67.2,67.2,0,0,1,6,134.12c-2,.19-4.13.29-6.18.29a67.2,67.2,0,0,1-6-134.13c2-.19,4.13-.28,6.18-.28h0m0-5q-3.3,0-6.64.3a72.2,72.2,0,0,0,6.47,144.11c2.19,0,4.41-.1,6.63-.31a72.2,72.2,0,0,0-6.46-144.1Z"></path></svg> 